<svg width="152" height="152" viewBox="0 0 152 152" fill="none" xmlns="http://www.w3.org/2000/svg">
<path d="M16.0273 76.0268C16.0273 92.0086 22.3761 107.336 33.6769 118.637C44.9777 129.937 60.3049 136.286 76.2866 136.286C92.2683 136.286 107.596 129.937 118.896 118.637C130.197 107.336 136.546 92.0086 136.546 76.0268C136.546 60.0451 130.197 44.7179 118.896 33.4171C107.596 22.1163 92.2683 15.7676 76.2866 15.7676C60.3049 15.7676 44.9777 22.1163 33.6769 33.4171C22.3761 44.7179 16.0273 60.0451 16.0273 76.0268Z" fill="#D9EDFF"/>
<path d="M105.413 122.703C105.413 124.291 92.2588 125.578 76.037 125.578C59.8152 125.578 46.6606 124.291 46.6606 122.703C46.6606 121.116 59.8152 119.829 76.037 119.829C92.2588 119.829 105.413 121.116 105.413 122.703Z" fill="#B0D9FF"/>
<path d="M46.1377 30.3105H105.925V110.794H46.1377V30.3105Z" fill="white"/>
<path d="M46.1377 30.3105H105.925V110.794H46.1377V30.3105Z" stroke="#020064" stroke-width="1.50648"/>
<path d="M114.233 94.011C114.233 94.4531 114.058 94.877 113.745 95.1897C113.433 95.5024 113.009 95.6783 112.567 95.6787H105.925V84.4434H114.233V94.011Z" fill="#B0D9FF" stroke="#020064" stroke-width="1.50648" stroke-linejoin="round"/>
<path d="M105.925 50.75H114.235V61.9853H105.925V50.75Z" fill="white" stroke="#020064" stroke-width="1.50648" stroke-linejoin="round"/>
<path d="M105.925 61.9824H114.235V73.2178H105.925V61.9824Z" fill="#B0D9FF" stroke="#020064" stroke-width="1.50648" stroke-linejoin="round"/>
<path d="M105.925 73.2139H114.235V84.4492H105.925V73.2139Z" fill="white" stroke="#020064" stroke-width="1.50648" stroke-linejoin="round"/>
<path d="M114.233 50.7558H105.925V39.5205H112.567C113.009 39.5205 113.433 39.6961 113.745 40.0085C114.058 40.321 114.233 40.7448 114.233 41.1867V50.7558Z" fill="#B0D9FF" stroke="#020064" stroke-width="1.50648" stroke-linejoin="round"/>
<path d="M65.6826 71.7002H97.8761V96.9955H65.6826V71.7002Z" fill="#B0D9FF" stroke="#020064" stroke-width="1.50648"/>
<path d="M71.4312 78.5977H92.1272" stroke="#020064" stroke-width="1.50648" stroke-linecap="round" stroke-linejoin="round"/>
<path d="M71.4312 84.3467H92.1272" stroke="#020064" stroke-width="1.50648" stroke-linecap="round" stroke-linejoin="round"/>
<path d="M71.4312 90.0967H92.1272" stroke="#020064" stroke-width="1.50648" stroke-linecap="round" stroke-linejoin="round"/>
<path d="M82.1122 45.3555C80.9845 45.3586 79.8686 45.5839 78.8279 46.0183C77.7873 46.4528 76.8425 47.088 76.0474 47.8876C75.2522 48.6872 74.6224 49.6356 74.1938 50.6786C73.7652 51.7216 73.5462 52.8389 73.5494 53.9665C73.5525 55.0942 73.7778 56.2102 74.2122 57.2508C74.6467 58.2914 75.2818 59.2362 76.0815 60.0313C76.8811 60.8265 77.8295 61.4563 78.8725 61.8849C79.9155 62.3135 81.0327 62.5325 82.1604 62.5294C85.2894 62.5294 89.2017 60.2049 89.2017 58.9002C89.2015 58.8247 89.1857 58.75 89.1553 58.6809C89.1248 58.6118 89.0804 58.5497 89.0248 58.4987C88.9692 58.4476 88.9036 58.4085 88.8321 58.3841C88.7607 58.3596 88.6849 58.3502 88.6096 58.3564C87.2839 58.3504 86.3334 60.9611 82.3261 60.9611C81.3838 61.0091 80.4414 60.8667 79.5553 60.5425C78.6692 60.2183 77.8575 59.7189 77.1686 59.0741C76.4797 58.4293 75.9278 57.6524 75.5458 56.7896C75.1637 55.9268 74.9594 54.9959 74.9451 54.0525C74.9307 53.109 75.1065 52.1724 75.4621 51.2984C75.8176 50.4244 76.3456 49.6309 77.0145 48.9655C77.6835 48.3 78.4796 47.7761 79.3554 47.425C80.2312 47.074 81.1688 46.903 82.1122 46.9222C85.5033 46.9222 88.6096 49.0313 88.6096 52.7086C88.6096 55.1506 86.9977 57.4043 85.4807 57.4043C85.3888 57.4148 85.2957 57.404 85.2086 57.3728C85.1215 57.3415 85.0428 57.2906 84.9786 57.2241C84.9143 57.1575 84.8663 57.077 84.8381 56.9889C84.81 56.9008 84.8025 56.8073 84.8163 56.7158C84.8353 56.385 84.8986 56.0582 85.0046 55.7442L86.4765 50.6688C86.5748 50.3936 86.638 50.1072 86.6648 49.8162C86.6648 49.435 86.2851 49.2934 85.9115 49.2934C85.6955 49.2661 85.4771 49.3221 85.3009 49.45C85.1246 49.5779 85.0036 49.768 84.9625 49.9819L84.6612 50.9279C84.4349 50.3843 84.0478 49.9228 83.5518 49.6053C83.0558 49.2879 82.4747 49.1296 81.8862 49.1518C78.6865 49.1518 76.5277 52.2823 76.5277 55.2922C76.5144 55.7729 76.597 56.2515 76.7704 56.7C76.9439 57.1485 77.2049 57.558 77.5381 57.9047C77.8714 58.2514 78.2702 58.5284 78.7115 58.7194C79.1528 58.9105 79.6277 59.0119 80.1086 59.0177C80.6303 58.9839 81.1401 58.8466 81.6082 58.6138C82.0763 58.3811 82.4935 58.0575 82.8353 57.6619H82.8835C82.8999 57.861 82.9563 58.0548 83.0492 58.2317C83.1421 58.4086 83.2697 58.565 83.4244 58.6915C83.579 58.818 83.7575 58.9121 83.9493 58.9682C84.1411 59.0242 84.3422 59.0411 84.5406 59.0177C86.1831 58.893 87.7131 58.1362 88.8089 56.9064C89.9046 55.6766 90.4807 54.0697 90.4159 52.4239C90.4159 48.2268 86.5985 45.3585 82.1167 45.3585L82.1122 45.3555ZM80.547 57.2115C80.2775 57.2042 80.0123 57.1425 79.7672 57.0302C79.5221 56.9179 79.3022 56.7572 79.1208 56.5579C78.9393 56.3586 78.7999 56.1246 78.7111 55.8701C78.6222 55.6156 78.5856 55.3458 78.6036 55.0768C78.6036 53.2991 79.7169 50.9505 81.9947 50.9505C83.1788 50.9505 83.7723 51.4974 83.7723 52.6589C83.7723 53.9861 82.8941 57.2115 80.547 57.2115Z" fill="#020064"/>
<path d="M57.6352 110.793H50.1374C49.6121 110.793 49.0919 110.69 48.6065 110.489C48.1212 110.288 47.6802 109.993 47.3087 109.622C46.9373 109.25 46.6427 108.809 46.4418 108.324C46.2408 107.839 46.1375 107.318 46.1377 106.793V34.3087C46.1377 33.2484 46.5589 32.2314 47.3087 31.4816C48.0586 30.7318 49.0755 30.3105 50.1359 30.3105H57.6352V110.793Z" fill="#B0D9FF"/>
<path d="M57.6352 110.793H50.1374C49.6121 110.793 49.0919 110.69 48.6065 110.489C48.1212 110.288 47.6802 109.993 47.3087 109.622C46.9373 109.25 46.6427 108.809 46.4418 108.324C46.2408 107.839 46.1375 107.318 46.1377 106.793V34.3087C46.1377 33.2484 46.5589 32.2314 47.3087 31.4816C48.0586 30.7318 49.0755 30.3105 50.1359 30.3105H57.6352V110.793Z" stroke="#020064" stroke-width="1.50648"/>
</svg>
