<svg width="152" height="151" viewBox="0 0 152 151" fill="none" xmlns="http://www.w3.org/2000/svg">
<path d="M15.7886 83.0552C15.7886 99.0369 22.1373 114.364 33.4381 125.665C44.7389 136.966 60.0661 143.314 76.0478 143.314C92.0296 143.314 107.357 136.966 118.658 125.665C129.958 114.364 136.307 99.0369 136.307 83.0552C136.307 67.0734 129.958 51.7462 118.658 40.4454C107.357 29.1446 92.0296 22.7959 76.0478 22.7959C60.0661 22.7959 44.7389 29.1446 33.4381 40.4454C22.1373 51.7462 15.7886 67.0734 15.7886 83.0552Z" fill="#D9EDFF"/>
<path d="M86.1431 8.11914V15.9604C86.1431 16.28 86.0162 16.5866 85.7901 16.8126C85.5641 17.0386 85.2576 17.1656 84.938 17.1656H64.6622C64.3426 17.1656 64.036 17.0386 63.81 16.8126C63.584 16.5866 63.457 16.28 63.457 15.9604V8.11914" fill="#B0D9FF"/>
<path d="M86.1431 8.11914V15.9604C86.1431 16.28 86.0162 16.5866 85.7901 16.8126C85.5641 17.0386 85.2576 17.1656 84.9379 17.1656H64.6622C64.3426 17.1656 64.036 17.0386 63.81 16.8126C63.584 16.5866 63.457 16.28 63.457 15.9604V8.11914" stroke="#020064" stroke-width="1.50648" stroke-linecap="round" stroke-linejoin="round"/>
<path d="M115.258 70.6621H36.1297C35.3306 70.6621 34.5642 70.9795 33.9992 71.5446C33.4341 72.1096 33.1167 72.876 33.1167 73.6751V124.722H118.271V73.6751C118.271 72.876 117.953 72.1096 117.388 71.5446C116.823 70.9795 116.057 70.6621 115.258 70.6621Z" fill="white" stroke="#020064" stroke-width="1.50648" stroke-linecap="round" stroke-linejoin="round"/>
<path d="M112.259 76.6738H39.2108L39.1265 124.723H112.259V76.6738Z" fill="#B0D9FF"/>
<path d="M112.259 76.6738H39.2108L39.1265 124.723H112.259V76.6738Z" stroke="#020064" stroke-width="1.50648" stroke-linecap="round" stroke-linejoin="round"/>
<path opacity="0.15" d="M29.6099 136.744C29.6099 137.138 30.8537 137.529 33.2703 137.894C35.6868 138.258 39.2289 138.59 43.6942 138.869C48.1595 139.148 53.4605 139.369 59.2947 139.52C65.1289 139.671 71.3819 139.749 77.6967 139.749C84.0116 139.749 90.2646 139.671 96.0988 139.52C101.933 139.369 107.234 139.148 111.699 138.869C116.165 138.59 119.707 138.258 122.123 137.894C124.54 137.529 125.784 137.138 125.784 136.744C125.784 136.349 124.54 135.958 122.123 135.594C119.707 135.229 116.165 134.898 111.699 134.619C107.234 134.339 101.933 134.118 96.0988 133.967C90.2646 133.816 84.0116 133.738 77.6967 133.738C71.3819 133.738 65.1289 133.816 59.2947 133.967C53.4605 134.118 48.1595 134.339 43.6942 134.619C39.2289 134.898 35.6868 135.229 33.2703 135.594C30.8537 135.958 29.6099 136.349 29.6099 136.744Z" fill="#020064"/>
<path d="M125.784 130.734H25.603V126.23C25.603 125.831 25.7617 125.447 26.0443 125.165C26.3268 124.882 26.71 124.724 27.1095 124.724H124.278C124.677 124.724 125.06 124.882 125.343 125.165C125.625 125.447 125.784 125.831 125.784 126.23V130.734Z" fill="white" stroke="#020064" stroke-width="1.50648" stroke-linecap="round" stroke-linejoin="round"/>
<path d="M125.784 130.735C116.479 133.393 106.85 134.741 97.1729 134.741H54.2141C44.5373 134.741 34.9077 133.393 25.603 130.735H125.784Z" fill="white" stroke="#020064" stroke-width="1.50648" stroke-linecap="round" stroke-linejoin="round"/>
<path d="M92.5322 50.2163C92.5302 48.4696 91.8356 46.7949 90.6006 45.5597C89.3656 44.3244 87.6911 43.6293 85.9444 43.627H64.4424C62.6954 43.6289 61.0205 44.3238 59.7852 45.5591C58.5499 46.7944 57.855 48.4693 57.853 50.2163V66.8659H63.5867V50.2163C63.5922 49.7913 63.7634 49.3852 64.064 49.0847C64.3645 48.7841 64.7706 48.6128 65.1956 48.6074H85.1911C85.616 48.6129 86.0219 48.7842 86.3222 49.0848C86.6225 49.3854 86.7935 49.7914 86.7986 50.2163V66.8659H92.5322V50.2163Z" fill="#B0D9FF" stroke="#020064" stroke-width="1.50648" stroke-linecap="round" stroke-linejoin="round"/>
<path d="M101.747 120.145H49.6378C49.3848 120.145 49.1344 120.094 48.9019 119.994C48.6693 119.894 48.4594 119.749 48.2848 119.566C48.1103 119.382 47.9748 119.166 47.8865 118.929C47.7982 118.692 47.759 118.439 47.7712 118.186L50.5597 62.5249C50.5837 62.1453 50.7502 61.7889 51.026 61.5271C51.3018 61.2653 51.6664 61.1175 52.0466 61.1133H100.039C100.423 61.1175 100.792 61.2687 101.069 61.5359C101.345 61.8032 101.509 62.1662 101.527 62.5505L103.616 118.21C103.625 118.461 103.584 118.712 103.494 118.946C103.404 119.18 103.267 119.394 103.093 119.575C102.918 119.755 102.709 119.899 102.478 119.997C102.247 120.095 101.998 120.145 101.747 120.145Z" fill="white"/>
<path d="M101.747 120.145H49.6378C49.3848 120.145 49.1344 120.094 48.9019 119.994C48.6693 119.894 48.4594 119.749 48.2848 119.566C48.1103 119.382 47.9748 119.166 47.8865 118.929C47.7982 118.692 47.759 118.439 47.7712 118.186L50.5597 62.5249C50.5837 62.1453 50.7502 61.7889 51.026 61.5271C51.3018 61.2653 51.6664 61.1175 52.0466 61.1133H100.039C100.423 61.1175 100.792 61.2687 101.069 61.5359C101.345 61.8032 101.509 62.1662 101.527 62.5505L103.616 118.21C103.625 118.461 103.584 118.712 103.494 118.946C103.404 119.18 103.267 119.394 103.093 119.575C102.918 119.755 102.709 119.899 102.478 119.997C102.247 120.095 101.998 120.145 101.747 120.145V120.145Z" stroke="#020064" stroke-width="1.50648" stroke-linecap="round" stroke-linejoin="round"/>
<path d="M64.9243 17.1631V20.3508C64.9243 20.6704 65.0513 20.977 65.2773 21.203C65.5033 21.429 65.8099 21.556 66.1295 21.556H83.4781C83.7978 21.556 84.1043 21.429 84.3303 21.203C84.5563 20.977 84.6833 20.6704 84.6833 20.3508V17.1631H64.9243Z" fill="white" stroke="#020064" stroke-width="1.50648" stroke-linecap="round" stroke-linejoin="round"/>
<path d="M86.8639 49.8472V47.7065H89.2201C90.21 47.7055 91.1899 47.9054 92.1005 48.294C92.1264 48.0836 92.1395 47.8718 92.1396 47.6598V40.8897C92.1396 27.5709 83.2077 29.9963 83.2077 21.5615H66.3773V25.5868C66.3773 29.8969 63.4502 31.2181 63.4502 38.758V50.831C63.4502 51.6073 63.7586 52.3518 64.3075 52.9007C64.8565 53.4497 65.601 53.758 66.3773 53.758C67.1536 53.758 67.8981 53.4497 68.4471 52.9007C68.996 52.3518 69.3044 51.6073 69.3044 50.831V52.2953C69.3044 53.0716 69.6128 53.8161 70.1617 54.365C70.7106 54.914 71.4552 55.2223 72.2315 55.2223C73.0078 55.2223 73.7523 54.914 74.3012 54.365C74.8502 53.8161 75.1586 53.0716 75.1586 52.2953V53.758C75.1586 54.5344 75.467 55.2789 76.0159 55.8278C76.5648 56.3768 77.3093 56.6851 78.0857 56.6851C78.862 56.6851 79.6065 56.3768 80.1554 55.8278C80.7044 55.2789 81.0128 54.5344 81.0128 53.758V54.6725C81.0039 55.0624 81.0731 55.4501 81.2161 55.8129C81.3592 56.1756 81.5734 56.5062 81.846 56.785C82.1186 57.0639 82.4442 57.2855 82.8036 57.4368C83.1631 57.588 83.5491 57.666 83.9391 57.666C84.3291 57.666 84.7151 57.588 85.0746 57.4368C85.434 57.2855 85.7596 57.0639 86.0322 56.785C86.3048 56.5062 86.519 56.1756 86.662 55.8129C86.8051 55.4501 86.8743 55.0624 86.8654 54.6725V49.8517L86.8639 49.8472Z" fill="white"/>
<path d="M86.8639 49.8472V47.7065H89.2201C90.21 47.7055 91.1899 47.9054 92.1005 48.294C92.1264 48.0836 92.1395 47.8718 92.1396 47.6598V40.8897C92.1396 27.5709 83.2077 29.9963 83.2077 21.5615H66.3773V25.5868C66.3773 29.8969 63.4502 31.2181 63.4502 38.758V50.831C63.4502 51.6073 63.7586 52.3518 64.3075 52.9007C64.8565 53.4497 65.601 53.758 66.3773 53.758C67.1536 53.758 67.8981 53.4497 68.4471 52.9007C68.996 52.3518 69.3044 51.6073 69.3044 50.831V52.2953C69.3044 53.0716 69.6128 53.8161 70.1617 54.365C70.7106 54.914 71.4552 55.2223 72.2315 55.2223C73.0078 55.2223 73.7523 54.914 74.3012 54.365C74.8502 53.8161 75.1586 53.0716 75.1586 52.2953V53.758C75.1586 54.5344 75.467 55.2789 76.0159 55.8278C76.5648 56.3768 77.3093 56.6851 78.0857 56.6851C78.862 56.6851 79.6065 56.3768 80.1554 55.8278C80.7044 55.2789 81.0128 54.5344 81.0128 53.758V54.6725C81.0039 55.0624 81.0731 55.4501 81.2161 55.8129C81.3592 56.1756 81.5734 56.5062 81.846 56.785C82.1186 57.0639 82.4442 57.2855 82.8036 57.4368C83.1631 57.588 83.5491 57.666 83.9391 57.666C84.3291 57.666 84.7151 57.588 85.0746 57.4368C85.434 57.2855 85.7596 57.0639 86.0322 56.785C86.3048 56.5062 86.519 56.1756 86.662 55.8129C86.8051 55.4501 86.8743 55.0624 86.8654 54.6725V49.8517L86.8639 49.8472Z" stroke="#020064" stroke-width="1.50648" stroke-linecap="round" stroke-linejoin="round"/>
<path d="M86.8776 41.3047L86.8716 50.9477" stroke="#020064" stroke-width="1.50648" stroke-linecap="round" stroke-linejoin="round"/>
<path d="M75.1592 49.123V52.2942V49.123Z" fill="#FFCEBF"/>
<path d="M75.1592 49.123V52.2942" stroke="#020064" stroke-width="1.50648" stroke-linecap="round" stroke-linejoin="round"/>
<path d="M81.0127 49.3672V53.7571V49.3672Z" fill="#FFCEBF"/>
<path d="M81.0127 49.3672V53.7571" stroke="#020064" stroke-width="1.50648" stroke-linecap="round" stroke-linejoin="round"/>
<path d="M69.3047 49.123V50.8299V49.123Z" fill="#FFCEBF"/>
<path d="M69.3047 49.123V50.8299" stroke="#020064" stroke-width="1.50648" stroke-linecap="round" stroke-linejoin="round"/>
<path d="M62.8887 85.3144C62.8887 85.9137 63.1268 86.4885 63.5505 86.9123C63.9743 87.3361 64.5491 87.5741 65.1484 87.5741C65.7477 87.5741 66.3225 87.3361 66.7463 86.9123C67.17 86.4885 67.4081 85.9137 67.4081 85.3144C67.4081 84.7151 67.17 84.1403 66.7463 83.7165C66.3225 83.2928 65.7477 83.0547 65.1484 83.0547C64.5491 83.0547 63.9743 83.2928 63.5505 83.7165C63.1268 84.1403 62.8887 84.7151 62.8887 85.3144Z" fill="#020064"/>
<path d="M83.98 85.3144C83.98 85.9137 84.2181 86.4885 84.6418 86.9123C85.0656 87.3361 85.6404 87.5741 86.2397 87.5741C86.839 87.5741 87.4138 87.3361 87.8376 86.9123C88.2613 86.4885 88.4994 85.9137 88.4994 85.3144C88.4994 84.7151 88.2613 84.1403 87.8376 83.7165C87.4138 83.2928 86.839 83.0547 86.2397 83.0547C85.6404 83.0547 85.0656 83.2928 84.6418 83.7165C84.2181 84.1403 83.98 84.7151 83.98 85.3144Z" fill="#020064"/>
<path d="M65.9141 94.3232C71.3163 102.146 80.075 102.146 85.4727 94.3232H65.9141Z" fill="#B0D9FF" stroke="#020064" stroke-width="1.50648" stroke-linecap="round" stroke-linejoin="round"/>
<path d="M86.8795 61.11H92.5318V50.2166C92.5275 48.6349 91.9535 47.1076 90.9149 45.9146C89.8763 44.7216 88.4426 43.9427 86.8765 43.7207V50.1805C86.8765 50.1925 86.8765 50.2031 86.8765 50.2166L86.8795 61.11Z" fill="#B0D9FF" stroke="#020064" stroke-width="1.50648" stroke-linecap="round" stroke-linejoin="round"/>
</svg>
